<?xml version="1.0" encoding="UTF-8" standalone="no"?>
<svg
   xmlns:dc="http://purl.org/dc/elements/1.1/"
   xmlns:cc="http://creativecommons.org/ns#"
   xmlns:rdf="http://www.w3.org/1999/02/22-rdf-syntax-ns#"
   xmlns:svg="http://www.w3.org/2000/svg"
   xmlns="http://www.w3.org/2000/svg"
   xmlns:sodipodi="http://sodipodi.sourceforge.net/DTD/sodipodi-0.dtd"
   xmlns:inkscape="http://www.inkscape.org/namespaces/inkscape"
   version="1.1"
   id="svg2"
   xml:space="preserve"
   width="6666.6665"
   height="5333.3335"
   viewBox="0 0 6666.6665 5333.3335"
   sodipodi:docname="logo.svg"
   inkscape:version="1.0.2-2 (e86c870879, 2021-01-15)"><metadata
     id="metadata8"><rdf:RDF><cc:Work
         rdf:about=""><dc:format>image/svg+xml</dc:format><dc:type
           rdf:resource="http://purl.org/dc/dcmitype/StillImage" /><dc:title></dc:title></cc:Work></rdf:RDF></metadata><defs
     id="defs6" /><sodipodi:namedview
     pagecolor="#ffffff"
     bordercolor="#666666"
     borderopacity="1"
     objecttolerance="10"
     gridtolerance="10"
     guidetolerance="10"
     inkscape:pageopacity="0"
     inkscape:pageshadow="2"
     inkscape:window-width="1366"
     inkscape:window-height="705"
     id="namedview4"
     showgrid="false"
     inkscape:zoom="0.100875"
     inkscape:cx="3333.3333"
     inkscape:cy="2666.6667"
     inkscape:window-x="-8"
     inkscape:window-y="-8"
     inkscape:window-maximized="1"
     inkscape:current-layer="g10" /><g
     id="g10"
     inkscape:groupmode="layer"
     inkscape:label="ink_ext_XXXXXX"
     transform="matrix(1.3333333,0,0,-1.3333333,0,5333.3333)"><g
       id="g12"
       transform="scale(0.340832)"><path
         d="m 2479.88,2908.06 c 1156.69,156.48 2680.29,257.67 4365.91,274.22 84.5,-185.82 271.77,-315.03 489.21,-315.03 217.44,0 404.71,129.21 489.21,315.03 1685.62,-16.55 3209.19,-117.74 4365.89,-274.22 -923.4,261.16 -2497.25,442.51 -4318.47,472.55 -66.69,1.09 -133.7,1.97 -201.04,2.68 -4.72,-76.02 -34.71,-145.24 -81.65,-199.28 -61.65,-70.95 -152.57,-115.84 -253.94,-115.84 -101.4,0 -192.29,44.89 -253.94,115.84 -46.97,54.04 -76.95,123.26 -81.65,199.28 -67.34,-0.71 -134.38,-1.59 -201.07,-2.68 -1821.19,-30.04 -3395.05,-211.39 -4318.46,-472.55"
         style="fill:#016199;fill-opacity:1;fill-rule:evenodd;stroke:none"
         id="path14" /><path
         d="m 9834.33,3584.47 c 819.07,0 1570.67,-42.66 2158.67,-113.81 -444.6,144.64 -1245.1,241.14 -2158.67,241.14 -913.59,0 -1714.04,-96.5 -2158.6,-241.14 587.91,71.15 1339.54,113.81 2158.6,113.81"
         style="fill:#cccccc;fill-opacity:1;fill-rule:evenodd;stroke:none"
         id="path16" /><path
         d="m 9651.16,3917.74 c 753.54,70.89 1448.94,96.68 1996.34,82.1 -422.3,94.59 -1167.5,114.12 -2007.99,35.05 -840.47,-79.07 -1568.05,-237.12 -1963.78,-408.64 534.34,116.3 1221.92,220.61 1975.43,291.49"
         style="fill:#cccccc;fill-opacity:1;fill-rule:evenodd;stroke:none"
         id="path18" /><path
         d="m 9438.88,4202.96 c 670.62,126.74 1292.92,208.13 1785.92,240.91 -387.6,49.61 -1058.8,4.72 -1806.75,-136.67 -747.96,-141.42 -1387.51,-344.31 -1727.83,-531.55 469.7,149.25 1078.1,300.53 1748.66,427.31"
         style="fill:#cccccc;fill-opacity:1;fill-rule:evenodd;stroke:none"
         id="path20" /><path
         d="m 4835.67,3584.47 c -819.08,0 -1570.69,-42.66 -2158.61,-113.81 444.57,144.64 1245.02,241.14 2158.61,241.14 913.59,0 1714.04,-96.5 2158.6,-241.14 -587.91,71.15 -1339.51,113.81 -2158.6,113.81"
         style="fill:#cccccc;fill-opacity:1;fill-rule:evenodd;stroke:none"
         id="path22" /><path
         d="m 5018.84,3917.74 c -753.54,70.89 -1448.89,96.68 -1996.29,82.1 422.23,94.59 1167.47,114.12 2007.94,35.05 840.47,-79.07 1568.05,-237.12 1963.78,-408.64 -534.34,116.3 -1221.92,220.61 -1975.43,291.49"
         style="fill:#cccccc;fill-opacity:1;fill-rule:evenodd;stroke:none"
         id="path24" /><path
         d="m 5231.12,4202.96 c -670.6,126.74 -1292.93,208.13 -1785.93,240.91 387.67,49.61 1058.79,4.72 1806.76,-136.67 747.99,-141.42 1387.51,-344.31 1727.83,-531.55 -469.7,149.25 -1078.07,300.53 -1748.66,427.31"
         style="fill:#cccccc;fill-opacity:1;fill-rule:evenodd;stroke:none"
         id="path26" /><path
         d="m 7150.16,7841.23 h 369.68 V 6829.06 H 8699.22 V 6459.41 H 7519.84 V 4109.42 H 7150.16 V 6459.41 H 5970.78 v 369.65 h 1179.38 v 1012.17"
         style="fill:#244065;fill-opacity:1;fill-rule:evenodd;stroke:none"
         id="path28" /><path
         d="m 3230.48,4161.41 c 8.45,2259.65 1842.88,4088.88 4104.52,4088.88 2261.64,0 4096.1,-1829.23 4104.5,-4088.88 25.2,184.64 38.2,373.12 38.2,564.65 0,2287.93 -1854.77,4142.69 -4142.7,4142.69 -2287.93,0 -4142.69,-1854.76 -4142.69,-4142.69 0,-191.53 13,-380.01 38.17,-564.65"
         style="fill:#ffd633;fill-opacity:1;fill-rule:evenodd;stroke:none"
         id="path30" /></g></g></svg>
